<svg width="40" height="48" fill="none" xmlns="http://www.w3.org/2000/svg"><path d="M28.657.296c-2.226.257-5.376 2.22-6.94 4.32-.902 1.203-1.433 2.352-1.892 4.08l-.23.864.011.919c.011.503.038.973.066 1.05.07.18.208.207 1.17.213.799.005.848 0 1.531-.202 1.827-.53 3.167-1.33 4.118-2.461.23-.28.575-.651.755-.837.602-.59 1.373-1.903 1.8-3.04.426-1.144.617-2.205.672-3.714L29.75.52l-.142-.142c-.159-.159-.247-.164-.952-.082z" fill="#717171"/><path d="M28.148 11.6c-1.082.055-3.997.864-6.092 1.684-1.268.498-1.268.498-1.52.542-.438.07-1.51-.241-3.352-.985-.98-.388-1.986-.683-3.473-1.022-.623-.137-1.657-.154-2.106-.028-.18.05-.749.164-1.263.252-1.105.197-1.728.388-2.56.798-2.51 1.225-4.221 2.986-5.577 5.742a18.721 18.721 0 00-1.373 3.665C.345 24.122.334 27.721.81 29.903c.055.268.104.585.104.71 0 .263.05.46.509 2.27.426 1.674.382 1.537 1.197 3.582 1.143 2.871 1.504 3.506 3.84 6.727.956 1.318 1.443 1.92 2.149 2.636.738.754 1.334 1.192 2.176 1.608.952.464 1.367.568 2.242.563 1.121 0 2.024-.23 3.74-.952 1.084-.454 1.155-.476 3.124-.88.59-.126 1.137-.115 1.968.022.285.043.711.109.941.142.465.066.935.219 2.15.705 1.465.59 2.498.853 3.581.919 1.575.098 3.096-.602 4.72-2.16 1.657-1.602 3.204-3.795 4.769-6.754.42-.799 1.093-2.434 1.208-2.926.05-.197.131-.443.191-.541a.833.833 0 00.104-.296c0-.196-.399-.508-1.104-.864-1.33-.683-2.636-1.853-3.517-3.171-.629-.947-1.263-2.363-1.422-3.2-.267-1.378-.344-2.887-.191-3.937.038-.274.175-.848.306-1.285.564-1.898.952-2.658 1.832-3.599.268-.279.487-.536.487-.558 0-.092 1.34-1.214 1.668-1.394a3 3 0 00.509-.361c.3-.295.257-.41-.498-1.296-1.012-1.187-2.286-2.16-3.784-2.888-.936-.454-1.58-.678-2.483-.864-.925-.197-2.303-.311-3.178-.262z" fill="#717171"/></svg>